TITLE ""
FILE "28.mp3" MP3
  TRACK 01 AUDIO
    TITLE "28_01"
    INDEX 01 00:00:00
  TRACK 02 AUDIO
    TITLE "28_02"
    INDEX 01 00:00:18
  TRACK 03 AUDIO
    TITLE "28_03"
    INDEX 01 00:01:59
  TRACK 04 AUDIO
    TITLE "28_04"
    INDEX 01 00:02:23
  TRACK 05 AUDIO
    TITLE "28_05"
    INDEX 01 00:03:22
  TRACK 06 AUDIO
    TITLE "28_06"
    INDEX 01 00:03:63
  TRACK 07 AUDIO
    TITLE "28_07"
    INDEX 01 00:04:57
  TRACK 08 AUDIO
    TITLE "28_08"
    INDEX 01 00:05:25
  TRACK 09 AUDIO
    TITLE "28_09"
    INDEX 01 00:09:62
  TRACK 10 AUDIO
    TITLE "28_10"
    INDEX 01 00:10:30
  TRACK 11 AUDIO
    TITLE "28_11"
    INDEX 01 00:13:23
  TRACK 12 AUDIO
    TITLE "28_12"
    INDEX 01 00:13:64
  TRACK 13 AUDIO
    TITLE "28_13"
    INDEX 01 00:14:61
  TRACK 14 AUDIO
    TITLE "28_14"
    INDEX 01 00:15:29
  TRACK 15 AUDIO
    TITLE "28_15"
    INDEX 01 00:17:60
  TRACK 16 AUDIO
    TITLE "28_16"
    INDEX 01 00:18:32
  TRACK 17 AUDIO
    TITLE "28_17"
    INDEX 01 00:20:01
  TRACK 18 AUDIO
    TITLE "28_18"
    INDEX 01 00:20:46
  TRACK 19 AUDIO
    TITLE "28_19"
    INDEX 01 00:21:38
  TRACK 20 AUDIO
    TITLE "28_20"
    INDEX 01 00:22:04
  TRACK 21 AUDIO
    TITLE "28_21"
    INDEX 01 00:22:71
  TRACK 22 AUDIO
    TITLE "28_22"
    INDEX 01 00:23:45
  TRACK 23 AUDIO
    TITLE "28_23"
    INDEX 01 00:26:53
  TRACK 24 AUDIO
    TITLE "28_24"
    INDEX 01 00:27:21
  TRACK 25 AUDIO
    TITLE "28_25"
    INDEX 01 00:29:14
  TRACK 26 AUDIO
    TITLE "28_26"
    INDEX 01 00:29:57
  TRACK 27 AUDIO
    TITLE "28_27"
    INDEX 01 00:30:54
  TRACK 28 AUDIO
    TITLE "28_28"
    INDEX 01 00:31:28
  TRACK 29 AUDIO
    TITLE "28_29"
    INDEX 01 00:34:05
  TRACK 30 AUDIO
    TITLE "28_30"
    INDEX 01 00:34:54
  TRACK 31 AUDIO
    TITLE "28_31"
    INDEX 01 00:36:26
  TRACK 32 AUDIO
    TITLE "28_32"
    INDEX 01 00:36:73
  TRACK 33 AUDIO
    TITLE "28_33"
    INDEX 01 00:37:66
  TRACK 34 AUDIO
    TITLE "28_34"
    INDEX 01 00:38:30
  TRACK 35 AUDIO
    TITLE "28_35"
    INDEX 01 00:39:26
  TRACK 36 AUDIO
    TITLE "28_36"
    INDEX 01 00:39:69
  TRACK 37 AUDIO
    TITLE "28_37"
    INDEX 01 00:43:40
  TRACK 38 AUDIO
    TITLE "28_38"
    INDEX 01 00:44:04
  TRACK 39 AUDIO
    TITLE "28_39"
    INDEX 01 00:46:30
  TRACK 40 AUDIO
    TITLE "28_40"
    INDEX 01 00:46:73
  TRACK 41 AUDIO
    TITLE "28_41"
    INDEX 01 00:47:69
  TRACK 42 AUDIO
    TITLE "28_42"
    INDEX 01 00:48:33
  TRACK 43 AUDIO
    TITLE "28_43"
    INDEX 01 00:53:05
  TRACK 44 AUDIO
    TITLE "28_44"
    INDEX 01 00:53:44
  TRACK 45 AUDIO
    TITLE "28_45"
    INDEX 01 00:56:25
